<?xml version="1.0" encoding="utf-8"?><svg xmlns="http://www.w3.org/2000/svg" xmlns:xlink="http://www.w3.org/1999/xlink"><symbol viewBox="0 0 32 32" id="cross" xmlns="http://www.w3.org/2000/svg"><path d="M31.708 25.708L22 16l9.708-9.708a1 1 0 000-1.414L27.122.292a1 1 0 00-1.414-.001L16 9.999 6.292.291a.998.998 0 00-1.414.001L.292 4.878a1 1 0 000 1.414L10 16 .292 25.708a.999.999 0 000 1.414l4.586 4.586a1 1 0 001.414 0L16 22l9.708 9.708a1 1 0 001.414 0l4.586-4.586a.999.999 0 000-1.414z"/></symbol><symbol viewBox="0 0 32 32" id="facebook2" xmlns="http://www.w3.org/2000/svg"><path d="M29 0H3C1.35 0 0 1.35 0 3v26c0 1.65 1.35 3 3 3h13V18h-4v-4h4v-2c0-3.306 2.694-6 6-6h4v4h-4c-1.1 0-2 .9-2 2v2h6l-1 4h-5v14h9c1.65 0 3-1.35 3-3V3c0-1.65-1.35-3-3-3z"/></symbol><symbol viewBox="0 0 32 32" id="github" xmlns="http://www.w3.org/2000/svg"><path d="M16 .395c-8.836 0-16 7.163-16 16 0 7.069 4.585 13.067 10.942 15.182.8.148 1.094-.347 1.094-.77 0-.381-.015-1.642-.022-2.979-4.452.968-5.391-1.888-5.391-1.888-.728-1.849-1.776-2.341-1.776-2.341-1.452-.993.11-.973.11-.973 1.606.113 2.452 1.649 2.452 1.649 1.427 2.446 3.743 1.739 4.656 1.33.143-1.034.558-1.74 1.016-2.14-3.554-.404-7.29-1.777-7.29-7.907 0-1.747.625-3.174 1.649-4.295-.166-.403-.714-2.03.155-4.234 0 0 1.344-.43 4.401 1.64a15.353 15.353 0 014.005-.539c1.359.006 2.729.184 4.008.539 3.054-2.07 4.395-1.64 4.395-1.64.871 2.204.323 3.831.157 4.234 1.026 1.12 1.647 2.548 1.647 4.295 0 6.145-3.743 7.498-7.306 7.895.574.497 1.085 1.47 1.085 2.963 0 2.141-.019 3.864-.019 4.391 0 .426.288.925 1.099.768C27.421 29.457 32 23.462 32 16.395c0-8.837-7.164-16-16-16z"/></symbol><symbol viewBox="0 0 32 32" id="linkedin" xmlns="http://www.w3.org/2000/svg"><path d="M29 0H3C1.35 0 0 1.35 0 3v26c0 1.65 1.35 3 3 3h26c1.65 0 3-1.35 3-3V3c0-1.65-1.35-3-3-3zM12 26H8V12h4v14zm-2-16c-1.106 0-2-.894-2-2s.894-2 2-2c1.106 0 2 .894 2 2s-.894 2-2 2zm16 16h-4v-8c0-1.106-.894-2-2-2s-2 .894-2 2v8h-4V12h4v2.481C18.825 13.35 20.087 12 21.5 12c2.488 0 4.5 2.238 4.5 5v9z"/></symbol><symbol viewBox="0 0 32 32" id="skype" xmlns="http://www.w3.org/2000/svg"><path d="M13.3 1.169c-.05-.031-.106-.056-.156-.081-.056.012-.106.019-.162.031l.319.05zM1.15 13.156a1.84 1.84 0 00-.025.162c.031.05.05.1.081.15l-.056-.313zM30.837 18.831c.012-.056.019-.113.031-.169-.031-.05-.05-.1-.081-.15l.05.319zM18.5 30.719c.05.031.106.056.156.081a1.64 1.64 0 01.169-.025l-.325-.056z"/><path d="M30.869 18.663c-.012.056-.019.113-.031.169l-.056-.325c.031.056.056.106.087.156.163-.9.25-1.819.25-2.738a15.067 15.067 0 00-4.426-10.687 15.133 15.133 0 00-4.8-3.237A15.023 15.023 0 0016.012.813c-.963 0-1.925.088-2.863.269h-.006c.05.025.106.05.156.081l-.319-.05c.056-.012.106-.019.162-.031A8.99 8.99 0 008.948.032C6.56.032 4.31.963 2.623 2.651S.004 6.588.004 8.976c0 1.519.394 3.019 1.125 4.338a1.84 1.84 0 00.025-.162l.056.319c-.031-.05-.056-.1-.081-.15-.15.856-.225 1.731-.225 2.606a15.072 15.072 0 004.425 10.681 15.1 15.1 0 004.806 3.238 15.023 15.023 0 008.525.95c-.05-.031-.1-.056-.156-.081l.325.056a1.64 1.64 0 01-.169.025 8.956 8.956 0 004.4 1.163c2.387 0 4.637-.931 6.325-2.619s2.619-3.938 2.619-6.325a9.07 9.07 0 00-1.137-4.35zm-14.8 6.518c-5.369 0-7.769-2.637-7.769-4.619 0-1.012.75-1.725 1.781-1.725 2.3 0 1.7 3.3 5.988 3.3 2.194 0 3.406-1.194 3.406-2.413 0-.731-.363-1.544-1.806-1.9l-4.775-1.194c-3.844-.963-4.544-3.044-4.544-5 0-4.056 3.819-5.581 7.406-5.581 3.306 0 7.2 1.825 7.2 4.263 0 1.044-.906 1.65-1.938 1.65-1.962 0-1.6-2.713-5.55-2.713-1.963 0-3.044.887-3.044 2.156s1.55 1.675 2.894 1.981l3.538.787c3.869.863 4.85 3.125 4.85 5.25 0 3.294-2.531 5.756-7.637 5.756z"/></symbol><symbol viewBox="0 0 32 32" id="telegram" xmlns="http://www.w3.org/2000/svg"><path d="M16 0C7.162 0 0 7.162 0 16s7.162 16 16 16 16-7.163 16-16S24.837 0 16 0zm7.863 10.969l-2.625 12.369c-.181.881-.712 1.087-1.45.681l-4-2.956-1.919 1.869c-.225.219-.4.4-.8.4-.519 0-.431-.194-.606-.688L11.1 18.169l-3.956-1.231c-.856-.262-.862-.85.194-1.269l15.412-5.95c.7-.319 1.381.169 1.113 1.25z"/></symbol><symbol viewBox="0 0 32 32" id="vk" xmlns="http://www.w3.org/2000/svg"><path d="M29 0H3C1.35 0 0 1.35 0 3v26c0 1.65 1.35 3 3 3h26c1.65 0 3-1.35 3-3V3c0-1.65-1.35-3-3-3zm-3.081 22.4l-2.925.044s-.631.125-1.456-.444c-1.094-.75-2.125-2.706-2.931-2.45-.813.256-.788 2.012-.788 2.012s.006.375-.181.575c-.2.219-.6.262-.6.262h-1.306s-2.888.175-5.431-2.475c-2.775-2.887-5.225-8.619-5.225-8.619s-.144-.375.013-.556c.175-.206.644-.219.644-.219l3.131-.019s.294.05.506.206c.175.125.269.369.269.369s.506 1.281 1.175 2.438c1.306 2.256 1.919 2.75 2.362 2.513.644-.35.45-3.194.45-3.194s.012-1.031-.325-1.488c-.262-.356-.756-.463-.969-.488-.175-.025.113-.431.488-.619.563-.275 1.556-.294 2.731-.281.913.006 1.181.069 1.538.15 1.081.262.712 1.269.712 3.681 0 .775-.137 1.863.419 2.219.238.156.825.025 2.294-2.469.694-1.181 1.219-2.569 1.219-2.569s.113-.25.288-.356c.181-.106.425-.075.425-.075l3.294-.019s.988-.119 1.15.331c.169.469-.369 1.563-1.712 3.356-2.206 2.944-2.456 2.669-.619 4.369 1.75 1.625 2.113 2.419 2.175 2.519.712 1.2-.813 1.294-.813 1.294z"/></symbol></svg>